<svg id="Слой_1" data-name="Слой 1" xmlns="http://www.w3.org/2000/svg" viewBox="0 0 84.02 146.52"><defs><style>.cls-1{fill:#0a0a0a;}</style></defs><path class="cls-1" d="M81.72,91.27c-.5-1.3-5.88-14.72-20-20.8C44,62.81,29.54,74.22,22.47,66.05c-2.35-2.71-2.32-8.59-2.13-20.36.2-12.39.3-18.59,3-21.57,4.81-5.24,14.75-4.61,34.64-3.35C70,21.54,75.71,22.83,79.6,19c3.4-3.4,4.49-9.71,2.1-13.7-1.88-3.14-5.45-4-27.93-4.89-20.41-.8-25.19-.4-30.88,1C15,3.27,11.12,4.22,7.58,7.1-1,14.11.9,25,.35,64.11c-.28,19.59-.93,28.08.84,43.57,1.66,14.44,2.58,21.77,7.16,27.3,10.85,13.1,33.71,14.31,49.67,7.35A42.67,42.67,0,0,0,78.08,125C79.59,122.42,88,107.57,81.72,91.27ZM61.36,118.55C56,126,44.69,133,34.9,129.33c-15-5.6-12.12-30.9-12-32,.55-4.31,1.1-8.68,4.52-11.62C35.25,79,50.71,86,57.7,90.56,61,92.72,63.65,94.5,65.28,98,69.52,107,62.19,117.4,61.36,118.55Z"/></svg>